<svg xmlns="http://www.w3.org/2000/svg" viewBox="0 0 100 100">
  <defs>
    <radialGradient id="bg" cx="50%" cy="50%" r="50%">
      <stop offset="0%" stop-color="#0a120c"/>
      <stop offset="100%" stop-color="#000"/>
    </radialGradient>
    <clipPath id="tri">
      <polygon points="50,18 82,72 18,72"/>
    </clipPath>
  </defs>
  <circle cx="50" cy="50" r="46" fill="url(#bg)" stroke="#00ff66" stroke-width="2"/>
  <circle cx="50" cy="50" r="42" fill="none" stroke="#00ff66" stroke-width="0.6" opacity="0.5" stroke-dasharray="2 3"/>
  <g stroke="#00ff66" stroke-width="1.6" stroke-linecap="round">
    <line x1="50" y1="2"  x2="50" y2="9"/>
    <line x1="50" y1="91" x2="50" y2="98"/>
    <line x1="2"  y1="50" x2="9"  y2="50"/>
    <line x1="91" y1="50" x2="98" y2="50"/>
  </g>
  <polygon points="50,18 82,72 18,72" fill="none" stroke="#00ff66" stroke-width="1.8" stroke-linejoin="round"/>
  <g clip-path="url(#tri)" stroke="#00ff66" fill="none" stroke-linecap="round">
    <path d="M 28 62 Q 50 42 72 62" stroke-width="1"/>
    <path d="M 32 62 Q 50 46 68 62" stroke-width="1"/>
    <path d="M 36 62 Q 50 50 64 62" stroke-width="1"/>
    <path d="M 40 62 Q 50 54 60 62" stroke-width="1"/>
    <path d="M 44 62 Q 50 58 56 62" stroke-width="1"/>
    <circle cx="50" cy="60" r="1.6" fill="#00ff66" stroke="none"/>
  </g>
</svg>
